<?xml version="1.0" encoding="UTF-8" standalone="no"?>
<!-- Created with Inkscape (http://www.inkscape.org/) -->

<svg
   width="90.77253mm"
   height="117.54319mm"
   viewBox="0 0 90.77253 117.54319"
   version="1.1"
   id="svg1089"
   inkscape:version="1.1.1 (3bf5ae0d25, 2021-09-20)"
   sodipodi:docname="FIRE_Logo.svg"
   xmlns:inkscape="http://www.inkscape.org/namespaces/inkscape"
   xmlns:sodipodi="http://sodipodi.sourceforge.net/DTD/sodipodi-0.dtd"
   xmlns:xlink="http://www.w3.org/1999/xlink"
   xmlns="http://www.w3.org/2000/svg"
   xmlns:svg="http://www.w3.org/2000/svg">
  <sodipodi:namedview
     id="namedview1091"
     pagecolor="#ffffff"
     bordercolor="#cccccc"
     borderopacity="1"
     inkscape:pageshadow="0"
     inkscape:pageopacity="1"
     inkscape:pagecheckerboard="0"
     inkscape:document-units="mm"
     showgrid="false"
     inkscape:zoom="0.74118967"
     inkscape:cx="58.01484"
     inkscape:cy="302.89143"
     inkscape:window-width="1920"
     inkscape:window-height="1017"
     inkscape:window-x="1912"
     inkscape:window-y="-8"
     inkscape:window-maximized="1"
     inkscape:current-layer="layer1" />
  <defs
     id="defs1086">
    <linearGradient
       gradientUnits="userSpaceOnUse"
       y2="425.54788"
       x2="-142.74289"
       y1="294.57022"
       x1="-124.43494"
       id="linearGradient1539"
       xlink:href="#linearGradient1537"
       inkscape:collect="always"
       gradientTransform="translate(257.74579,-241.40093)" />
    <linearGradient
       id="linearGradient1537"
       inkscape:collect="always">
      <stop
         id="stop1533"
         offset="0"
         style="stop-color:#ffff00;stop-opacity:1;" />
      <stop
         id="stop1535"
         offset="1"
         style="stop-color:#ffff00;stop-opacity:0;" />
    </linearGradient>
    <linearGradient
       gradientUnits="userSpaceOnUse"
       y2="357.05957"
       x2="-79.923225"
       y1="357.05957"
       x1="-170.69576"
       id="linearGradient2140"
       xlink:href="#linearGradient2138"
       inkscape:collect="always"
       gradientTransform="translate(257.74579,-241.40093)" />
    <linearGradient
       id="linearGradient2138"
       inkscape:collect="always">
      <stop
         id="stop2134"
         offset="0"
         style="stop-color:#ffffff;stop-opacity:1;" />
      <stop
         id="stop2136"
         offset="1"
         style="stop-color:#ffffff;stop-opacity:0;" />
    </linearGradient>
  </defs>
  <g
     inkscape:label="Layer 1"
     inkscape:groupmode="layer"
     id="layer1"
     transform="translate(-87.050032,-56.887059)">
    <text
       inkscape:export-ydpi="173.48862"
       inkscape:export-xdpi="173.48862"
       transform="matrix(1.221526,0,0,1.221526,285.50507,-325.23212)"
       id="text1516"
       y="394.77524"
       x="-150.48567"
       style="font-style:normal;font-variant:normal;font-weight:normal;font-stretch:normal;font-size:52.3995px;line-height:1.25;font-family:'Comic Sans MS';-inkscape-font-specification:'Comic Sans MS';opacity:0.764516;fill:#800000;fill-opacity:1;stroke:#800000;stroke-width:4;stroke-miterlimit:4;stroke-dasharray:none;stroke-opacity:1"
       xml:space="preserve"><tspan
         style="font-style:normal;font-variant:normal;font-weight:normal;font-stretch:normal;font-family:Calibri;-inkscape-font-specification:Calibri;fill:#800000;fill-opacity:1;stroke:#800000;stroke-width:4;stroke-miterlimit:4;stroke-dasharray:none;stroke-opacity:1"
         y="394.77524"
         x="-150.48567"
         id="tspan1514"
         sodipodi:role="line"> $  </tspan></text>
    <path
       inkscape:export-ydpi="173.48862"
       inkscape:export-xdpi="173.48862"
       sodipodi:nodetypes="ccccccccccccccc"
       d="m 129.68489,56.93362 c 0.17444,1.59499 0.2619,3.19831 0.262,4.80282 -0.402,23.39711 -16.59016,33.63831 -28.21068,42.05788 -13.86789,10.86356 -18.50149,29.80578 -11.2143,45.84424 2.13138,4.69071 5.1902,8.90145 8.99221,12.37856 8.83101,8.17494 20.15406,12.35387 31.54123,12.36205 22.2447,0.14174 37.28501,-13.72799 44.26761,-32.25724 4.42564,-15.20104 2.19938,-25.43538 -1.50066,-32.14584 0.22998,1.58297 0.0117,2.11129 0.0119,3.71088 5e-5,3.68586 -1.00143,6.89719 -2.10777,9.27557 -1.16801,3.06157 -4.37193,5.48527 -7.38146,5.08445 -8.46955,-0.0604 -12.05905,-10.32133 -9.62475,-19.44967 1.44761,-6.76638 0.97395,-13.87363 -0.0951,-19.45724 C 153.2886,80.3338 143.05333,61.9694 129.68497,56.93385 Z"
       style="fill:#ff0000;fill-opacity:1;stroke:none;stroke-width:0.0264583;stroke-linecap:round;stroke-miterlimit:4;stroke-dasharray:none"
       id="path845-3-2" />
    <path
       inkscape:export-ydpi="173.48862"
       inkscape:export-xdpi="173.48862"
       id="path845-3-2-3"
       style="fill:url(#linearGradient1539);fill-opacity:1;stroke:url(#linearGradient2140);stroke-width:0.1;stroke-linecap:round;stroke-miterlimit:4;stroke-dasharray:none;stroke-opacity:1"
       d="m 129.68489,56.93362 c 0.17444,1.59499 0.2619,3.19831 0.262,4.80282 -0.402,23.3971 -16.59016,33.63831 -28.21068,42.05788 -13.86789,10.86356 -18.50149,29.80578 -11.2143,45.84424 2.13138,4.69071 5.1902,8.90145 8.99221,12.37856 8.83101,8.17494 20.15406,12.35387 31.54123,12.36205 22.2447,0.14174 37.28501,-13.72799 44.26761,-32.25724 4.42564,-15.20104 2.19938,-25.43538 -1.50065,-32.14584 0.22997,1.58297 0.0117,2.11129 0.0119,3.71088 4e-5,3.68586 -1.00144,6.89719 -2.10778,9.27557 -1.16801,3.06157 -4.37193,5.48526 -7.38146,5.08445 -8.46955,-0.0604 -12.05905,-10.32133 -9.62475,-19.44967 1.44761,-6.76638 0.97395,-13.87363 -0.0951,-19.45725 C 153.2886,80.3338 143.05333,61.9694 129.68497,56.93385 Z"
       sodipodi:nodetypes="ccccccccccccccc" />
    <path
       style="fill:#68da2c;fill-opacity:1;stroke:none;stroke-width:0.153807"
       d="m 127.02569,166.88688 c -1.45955,-0.35967 -2.501,-1.34816 -2.68033,-2.54404 -0.0481,-0.32087 0.29013,-4.14189 0.453,-5.11734 0.0431,-0.25796 0.0225,-0.29313 -0.20098,-0.34287 -0.99515,-0.22155 -2.97837,-0.82332 -3.798,-1.15242 -2.43579,-0.97804 -3.57582,-2.09428 -3.9521,-3.86963 -0.17013,-0.80266 -0.1681,-2.9411 0.004,-3.75711 0.43481,-2.067 2.10087,-3.25922 4.00283,-2.86437 0.31203,0.0648 1.13452,0.42128 2.07311,0.89857 2.33115,1.18543 4.08597,1.71036 6.31467,1.88893 2.26409,0.1814 4.48535,-0.0962 5.83918,-0.72966 0.67567,-0.31617 1.48163,-1.05582 1.76951,-1.62391 0.47747,-0.94224 0.47323,-2.42348 -0.009,-3.25102 -0.31271,-0.53629 -1.17095,-1.28974 -2.05049,-1.80013 -0.84901,-0.49267 -1.75109,-0.86168 -5.08735,-2.08111 -3.63762,-1.32957 -5.5431,-2.24497 -7.13942,-3.42982 -2.07253,-1.5383 -3.56807,-3.55218 -4.32535,-5.82447 -0.47201,-1.4163 -0.57815,-2.19459 -0.5807,-4.25791 -0.003,-2.09045 0.0824,-2.67354 0.62916,-4.31695 0.98816,-2.97019 3.09417,-5.29817 6.14144,-6.78874 1.25368,-0.61324 2.62583,-1.08297 3.96907,-1.35872 0.52186,-0.10714 0.95866,-0.20092 0.97067,-0.2084 0.012,-0.007 0.12369,-1.03452 0.24817,-2.28232 0.12447,-1.2478 0.26814,-2.42936 0.31926,-2.6257 0.25238,-0.96928 1.1776,-1.92797 2.16353,-2.24178 0.69063,-0.21983 3.20927,-0.2752 4.00814,-0.0881 1.61176,0.37745 2.53019,1.31542 2.74023,2.79856 0.0618,0.43642 0.0307,1.00174 -0.13525,2.45859 -0.25073,2.20112 -0.25471,2.28782 -0.10698,2.33373 0.0614,0.0191 0.48945,0.13961 0.95132,0.26788 2.7369,0.76005 4.5174,1.85155 5.18828,3.18056 0.48564,0.96205 0.5741,1.4694 0.56647,3.24912 -0.006,1.3782 -0.0335,1.68736 -0.19402,2.17655 -0.58024,1.76792 -2.13598,2.65534 -3.86064,2.20217 -0.268,-0.0704 -0.98927,-0.36741 -1.60281,-0.65997 -1.32904,-0.63376 -2.51639,-1.08411 -3.71569,-1.40934 -0.76339,-0.20701 -1.0996,-0.24407 -2.53131,-0.27899 -1.22066,-0.0298 -1.8487,-0.006 -2.40955,0.0931 -1.48958,0.26182 -2.47106,0.78768 -2.84848,1.52618 -0.29543,0.57809 -0.3677,1.83124 -0.14899,2.58357 0.26915,0.92584 1.496,2.00066 3.12869,2.74095 0.34116,0.15469 1.86682,0.73413 3.39035,1.28764 5.61391,2.03958 6.96181,2.69602 8.93328,4.35061 2.09165,1.75545 3.46775,4.11675 4.02483,6.90632 0.24516,1.22769 0.22243,4.13899 -0.0419,5.36014 -1.24556,5.75523 -5.58248,9.5042 -12.46653,10.77648 l -1.07091,0.19792 -0.15256,1.42071 c -0.36113,3.36298 -0.41736,3.75983 -0.60217,4.24985 -0.38087,1.00983 -1.29721,1.73445 -2.52705,1.99833 -0.80664,0.17308 -2.81312,0.14984 -3.58991,-0.0416 z"
       id="path1036" />
  </g>
</svg>
